<?xml version="1.0" encoding="UTF-8" standalone="no"?>
<!DOCTYPE svg PUBLIC "-//W3C//DTD SVG 1.1//EN" "http://www.w3.org/Graphics/SVG/1.1/DTD/svg11.dtd">
<svg width="2226" height="424" viewBox="0 0 2226 424" version="1.1" xmlns="http://www.w3.org/2000/svg" xmlns:xlink="http://www.w3.org/1999/xlink" xml:space="preserve" xmlns:serif="http://www.serif.com/" style="fill-rule:evenodd;clip-rule:evenodd;stroke-linejoin:round;stroke-miterlimit:2;">
    <g transform="matrix(1,0,0,1,-611.45151,-2371.443353)">
        <g transform="matrix(1,0,0,1,0,449.94983)">
            <path d="M2449.091,2323.228L2520.837,2323.228L2645.565,2168.925L2756.693,2323.228L2837.008,2323.455L2695.235,2119.255L2836.52,1921.654L2757.047,1921.654L2645.669,2066.273L2527.46,1921.677L2455.713,1921.654L2591.479,2118.898L2449.091,2323.228Z"/>
        </g>
        <g transform="matrix(1,0,0,1,-3.368488,462.685578)">
            <path d="M2338.686,2198.024L2409.052,2198.024C2409.052,2198.024 2394.219,2326.777 2236.586,2330.478C2031.259,2335.299 2031.005,2122.138 2031.005,2122.138C2031.005,2122.138 2008.563,1935.69 2229.687,1909.659C2302.258,1901.116 2360.068,1955.854 2370.379,1965.82C2421.132,2014.874 2425.157,2144.912 2425.157,2144.912L2107.266,2144.912C2107.266,2144.912 2105.853,2261.392 2226.652,2264.218C2347.45,2267.043 2338.686,2198.024 2338.686,2198.024ZM2104.777,2083.837L2352.873,2083.837C2352.873,2083.837 2350.048,1975.33 2232.499,1973.635C2114.95,1971.939 2104.777,2083.837 2104.777,2083.837Z"/>
        </g>
        <g transform="matrix(1,0,0,1,463.504217,459.278706)">
            <path d="M1196.207,2090.042L1196.207,2321.213L1130.925,2321.213L1130.863,1931.037L1196.207,1931.037L1196.207,1988.007C1196.207,1988.007 1236.973,1911.558 1334.375,1912.407C1444.502,1913.367 1505.301,2004.328 1500.752,2056.264L1500.752,2321.213L1437.908,2321.213L1437.908,2089.269C1437.908,2089.269 1430.223,1976.824 1319.907,1977.145C1209.592,1977.466 1196.207,2090.042 1196.207,2090.042Z"/>
        </g>
        <g transform="matrix(1,0,0,1,-2.694791,459.203466)">
            <path d="M1196.207,2090.042L1196.207,2321.213L1130.925,2321.213L1130.863,1931.037L1196.207,1931.037L1196.207,1988.007C1196.207,1988.007 1236.973,1911.558 1334.375,1912.407C1444.502,1913.367 1504.882,2004.328 1500.333,2056.264L1500.752,2321.213L1437.908,2321.213L1437.908,2089.269C1437.908,2089.269 1430.223,1976.824 1319.907,1977.145C1209.592,1977.466 1196.207,2090.042 1196.207,2090.042Z"/>
        </g>
        <g transform="matrix(1,0,0,1,-0.867342,459.196446)">
            <path d="M974.495,1974.073L974.495,1928.835L1035.78,1928.693L1036.232,2320.759L974.495,2321.211L974.495,2265.769C968.742,2263.974 931.051,2341.441 804.028,2335.607C727.888,2332.11 604.613,2265.542 612.697,2109.244C620.782,1952.946 742.047,1909.829 828.281,1912.524C914.514,1915.219 974.495,1974.073 974.495,1974.073ZM824.05,1974.073C741.018,1974.073 673.606,2041.485 673.606,2124.518C673.606,2207.55 741.018,2274.962 824.05,2274.962C907.083,2274.962 974.495,2207.55 974.495,2124.518C974.495,2041.485 907.083,1974.073 824.05,1974.073Z"/>
        </g>
    </g>
</svg>
